<svg width="33" height="30" viewBox="0 0 33 30" fill="none" xmlns="http://www.w3.org/2000/svg">
<path d="M11.172 29.5003C7.391 29.5003 4.579 28.5883 2.736 26.7643C0.912 24.9403 0 22.1473 0 18.3853V11.7733C0 7.95426 0.912 5.14226 2.736 3.33726C4.579 1.51326 7.391 0.601257 11.172 0.601257H15.846C19.646 0.601257 22.458 1.51326 24.282 3.33726C26.106 5.16126 27.018 7.97326 27.018 11.7733V18.3283C27.018 22.1093 26.106 24.9213 24.282 26.7643C22.458 28.5883 19.646 29.5003 15.846 29.5003H11.172ZM4.788 18.3853C4.788 20.8363 5.2345 22.5083 6.1275 23.4013C7.0205 24.2753 8.702 24.7123 11.172 24.7123H15.846C18.335 24.7123 20.0165 24.2658 20.8905 23.3728C21.7835 22.4798 22.23 20.7983 22.23 18.3283V11.7733C22.23 9.28426 21.7835 7.60276 20.8905 6.72876C20.0165 5.83576 18.335 5.38926 15.846 5.38926H11.172C9.519 5.38926 8.227 5.57926 7.296 5.95926C6.384 6.32026 5.738 6.96626 5.358 7.89726C4.978 8.80926 4.788 10.1013 4.788 11.7733V18.3853Z" fill="url(#paint0_linear_154950_82)"/>
<path fill-rule="evenodd" clip-rule="evenodd" d="M32.1826 2.62049L16.1225 18.6967C15.8412 18.9782 15.4596 19.1364 15.0616 19.1365C14.6637 19.1366 14.282 18.9786 14.0006 18.6972L8.43994 13.1366C8.43994 13.1366 8.46469 11.4699 8.93994 11.0002C9.41 10.5357 10.9399 10.5002 10.9399 10.5002L15.0616 14.6311L29.9399 0.000237344C29.9399 0.000237344 31.7088 -0.0047856 32.1826 0.588923C32.5817 1.08899 32.1826 2.62049 32.1826 2.62049Z" fill="#2E384D"/>
<defs>
<linearGradient id="paint0_linear_154950_82" x1="13.509" y1="0.601257" x2="13.509" y2="29.5003" gradientUnits="userSpaceOnUse">
<stop stop-color="#4D51B4"/>
<stop offset="1" stop-color="#0EF6CC"/>
</linearGradient>
</defs>
</svg>
