<svg width="130" height="67" viewBox="0 0 130 67" fill="none" xmlns="http://www.w3.org/2000/svg">
<path d="M8.322 55C6.726 55 5.928 54.202 5.928 52.606V18.748C5.928 17.152 6.726 16.354 8.322 16.354H29.298C30.039 16.354 30.6185 16.5725 31.0365 17.0095C31.4735 17.4275 31.692 18.007 31.692 18.748C31.692 20.344 30.894 21.142 29.298 21.142H10.716V33.112H22.173C23.769 33.112 24.567 33.91 24.567 35.506C24.567 37.102 23.769 37.9 22.173 37.9H10.716V52.606C10.716 54.202 9.918 55 8.322 55ZM46.2079 55C43.3009 55 41.1349 54.2875 39.7099 52.8625C38.3039 51.4185 37.6009 49.243 37.6009 46.336V17.266C37.6009 15.67 38.3989 14.872 39.9949 14.872C41.5909 14.872 42.3889 15.67 42.3889 17.266V46.336C42.3889 47.875 42.6359 48.9105 43.1299 49.4425C43.6429 49.9555 44.6689 50.212 46.2079 50.212C47.8419 50.212 48.6589 51.01 48.6589 52.606C48.7159 54.202 47.8989 55 46.2079 55ZM99.5986 55C98.3446 55 97.5086 54.354 97.0906 53.062L89.1676 29.236C88.6736 27.792 89.1866 26.804 90.7066 26.272C92.2076 25.759 93.2146 26.272 93.7276 27.811L100.169 46.9915H99.7981L105.869 27.811C106.287 26.557 107.199 25.93 108.605 25.93C109.935 25.93 110.79 26.595 111.17 27.925L116.841 46.792H116.613L123.197 27.754C123.748 26.215 124.774 25.721 126.275 26.272C127.776 26.804 128.251 27.83 127.7 29.35L119.036 53.062C118.561 54.354 117.668 55 116.357 55C115.008 55 114.134 54.335 113.735 53.005L107.864 33.397H108.491L102.107 53.062C101.917 53.689 101.603 54.1735 101.166 54.5155C100.729 54.8385 100.207 55 99.5986 55Z" fill="#2E384D"/>
<path d="M66.172 54.5003C62.391 54.5003 59.579 53.5883 57.736 51.7643C55.912 49.9403 55 47.1473 55 43.3853V36.7733C55 32.9543 55.912 30.1423 57.736 28.3373C59.579 26.5133 62.391 25.6013 66.172 25.6013H70.846C74.646 25.6013 77.458 26.5133 79.282 28.3373C81.106 30.1613 82.018 32.9733 82.018 36.7733V43.3283C82.018 47.1093 81.106 49.9213 79.282 51.7643C77.458 53.5883 74.646 54.5003 70.846 54.5003H66.172ZM59.788 43.3853C59.788 45.8363 60.2345 47.5083 61.1275 48.4013C62.0205 49.2753 63.702 49.7123 66.172 49.7123H70.846C73.335 49.7123 75.0165 49.2658 75.8905 48.3728C76.7835 47.4798 77.23 45.7983 77.23 43.3283V36.7733C77.23 34.2843 76.7835 32.6028 75.8905 31.7288C75.0165 30.8358 73.335 30.3893 70.846 30.3893H66.172C64.519 30.3893 63.227 30.5793 62.296 30.9593C61.384 31.3203 60.738 31.9663 60.358 32.8973C59.978 33.8093 59.788 35.1013 59.788 36.7733V43.3853Z" fill="url(#paint0_linear_154933_170)"/>
<path fill-rule="evenodd" clip-rule="evenodd" d="M87.1826 27.6205L71.1225 43.6967C70.8412 43.9782 70.4596 44.1364 70.0616 44.1365C69.6637 44.1366 69.282 43.9786 69.0006 43.6972L63.4399 38.1366C63.4399 38.1366 63.4647 36.4699 63.9399 36.0002C64.41 35.5357 65.9399 35.5002 65.9399 35.5002L70.0616 39.6311L84.9399 25.0002C84.9399 25.0002 86.7088 24.9952 87.1826 25.5889C87.5817 26.089 87.1826 27.6205 87.1826 27.6205Z" fill="#2E384D"/>
<defs>
<linearGradient id="paint0_linear_154933_170" x1="68.509" y1="25.6013" x2="68.509" y2="54.5003" gradientUnits="userSpaceOnUse">
<stop stop-color="#4D51B4"/>
<stop offset="1" stop-color="#11EB9C"/>
</linearGradient>
</defs>
</svg>
